<svg width="20" height="21" viewBox="0 0 20 21" fill="none" xmlns="http://www.w3.org/2000/svg">
    <path
        d="M1.28349 11.7767H15.6201L9.35668 18.0402C8.85612 18.5407 8.85612 19.3622 9.35668 19.8627C9.47542 19.9817 9.61647 20.0761 9.77173 20.1405C9.927 20.2049 10.0935 20.2381 10.2615 20.2381C10.4296 20.2381 10.5961 20.2049 10.7514 20.1405C10.9066 20.0761 11.0477 19.9817 11.1664 19.8627L19.6246 11.4045C19.7436 11.2857 19.838 11.1447 19.9024 10.9894C19.9668 10.8342 20 10.6677 20 10.4996C20 10.3315 19.9668 10.1651 19.9024 10.0098C19.838 9.85454 19.7436 9.7135 19.6246 9.59476L11.1664 1.13652C11.0476 1.0177 10.9065 0.923438 10.7513 0.859129C10.596 0.794819 10.4296 0.761719 10.2615 0.761719C10.0935 0.761719 9.9271 0.794819 9.77184 0.859129C9.61658 0.923438 9.47551 1.0177 9.35668 1.13652C9.23785 1.25535 9.14359 1.39642 9.07929 1.55168C9.01498 1.70694 8.98188 1.87334 8.98188 2.04139C8.98188 2.20944 9.01498 2.37584 9.07929 2.5311C9.14359 2.68636 9.23785 2.82743 9.35668 2.94625L15.6201 9.20971H1.28349C0.577572 9.20971 0 9.78728 0 10.4932C0 11.1991 0.577572 11.7767 1.28349 11.7767Z"
        fill="rgba(116, 116, 118, 0.1)" />
</svg>